name Walk7.mot
datacolumns 19
datarows 10
range 1.64600000 1.65500000
endheader

                time	   L_ground_force_vx	   L_ground_force_vy	   L_ground_force_vz	   L_ground_force_px	   L_ground_force_py	   L_ground_force_pz	   R_ground_force_vx	   R_ground_force_vy	   R_ground_force_vz	   R_ground_force_px	   R_ground_force_py	   R_ground_force_pz	   L_ground_torque_x	   L_ground_torque_y	   L_ground_torque_z	   R_ground_torque_x	   R_ground_torque_y	   R_ground_torque_z	
          1.64600000	         31.29572857	        952.57828262	         73.73142420	         -0.15678009	          0.00000000	         -0.07059110	          0.00000000	          0.00000000	          0.00000000	          0.00000000	          0.00000000	          0.00000000	          0.00000000	         -2.37511934	          0.00000000	          0.00000000	          0.00000000	          0.00000000	
          1.64700000	         31.83989406	        954.76533187	         74.10871223	         -0.15664103	          0.00000000	         -0.07049574	          0.00000000	          0.00000000	          0.00000000	          0.00000000	          0.00000000	          0.00000000	          0.00000000	         -2.42690109	          0.00000000	          0.00000000	          0.00000000	          0.00000000	
          1.64800000	         32.37778623	        956.97677401	         74.46824352	         -0.15653274	          0.00000000	         -0.07046770	          0.00000000	          0.00000000	          0.00000000	          0.00000000	          0.00000000	          0.00000000	          0.00000000	         -2.46594342	          0.00000000	          0.00000000	          0.00000000	          0.00000000	
          1.64900000	         32.93005582	        959.15802089	         74.81239012	         -0.15643326	          0.00000000	         -0.07050669	          0.00000000	          0.00000000	          0.00000000	          0.00000000	          0.00000000	          0.00000000	          0.00000000	         -2.49689188	          0.00000000	          0.00000000	          0.00000000	          0.00000000	
          1.65000000	         33.52777284	        961.26411600	         75.14300334	         -0.15631019	          0.00000000	         -0.07058023	          0.00000000	          0.00000000	          0.00000000	          0.00000000	          0.00000000	          0.00000000	          0.00000000	         -2.52576854	          0.00000000	          0.00000000	          0.00000000	          0.00000000	
          1.65100000	         34.17258215	        963.27029290	         75.45437765	         -0.15613860	          0.00000000	         -0.07065967	          0.00000000	          0.00000000	          0.00000000	          0.00000000	          0.00000000	          0.00000000	          0.00000000	         -2.55147316	          0.00000000	          0.00000000	          0.00000000	          0.00000000	
          1.65200000	         34.83360030	        965.17309268	         75.73734075	         -0.15591612	          0.00000000	         -0.07073359	          0.00000000	          0.00000000	          0.00000000	          0.00000000	          0.00000000	          0.00000000	          0.00000000	         -2.56976364	          0.00000000	          0.00000000	          0.00000000	          0.00000000	
          1.65300000	         35.47015684	        967.00112575	         75.99197594	         -0.15565884	          0.00000000	         -0.07080443	          0.00000000	          0.00000000	          0.00000000	          0.00000000	          0.00000000	          0.00000000	          0.00000000	         -2.57600004	          0.00000000	          0.00000000	          0.00000000	          0.00000000	
          1.65400000	         36.05888711	        968.82729584	         76.23556865	         -0.15539112	          0.00000000	         -0.07087505	          0.00000000	          0.00000000	          0.00000000	          0.00000000	          0.00000000	          0.00000000	          0.00000000	         -2.56957857	          0.00000000	          0.00000000	          0.00000000	          0.00000000	
          1.65500000	         36.62179955	        970.75195934	         76.49115795	         -0.15513505	          0.00000000	         -0.07093425	          0.00000000	          0.00000000	          0.00000000	          0.00000000	          0.00000000	          0.00000000	          0.00000000	         -2.56025051	          0.00000000	          0.00000000	          0.00000000	          0.00000000	
